<svg width="99" height="61" viewBox="0 0 99 61" fill="none" xmlns="http://www.w3.org/2000/svg">
<g clip-path="url(#clip0_897_42393)">
<path fill-rule="evenodd" clip-rule="evenodd" d="M89.0491 44.0889C88.8017 44.3494 88.5023 44.5566 88.1697 44.6976C87.7989 44.8168 87.4101 44.8728 87.0202 44.863C86.695 44.8763 86.3704 44.8257 86.0653 44.7141C85.7935 44.6004 85.5605 44.4121 85.394 44.1716C84.9208 43.606 84.6758 42.8717 84.6758 41.972C84.6758 41.0723 84.9376 40.3065 85.4444 39.7641C85.6735 39.5192 85.9423 39.3136 86.2398 39.1555C86.5184 39.0149 86.7886 38.957 87.4901 38.7403C87.8007 38.6569 88.0856 38.499 88.3191 38.2806C88.4869 38.0986 88.5809 38.0225 88.5809 37.7315C88.587 37.5958 88.5613 37.4606 88.5057 37.3364C88.4501 37.2122 88.3661 37.1023 88.2604 37.0153C88.0195 36.836 87.7229 36.7448 87.4213 36.7573C87.1004 36.7491 86.7812 36.8054 86.4832 36.9227C86.0704 37.0761 85.6713 37.263 85.29 37.4817V34.948C86.4441 34.8253 87.605 34.7755 88.7655 34.7992C91.0059 34.7992 92.1219 35.6658 92.1219 37.3643V42.1969C92.1219 42.5145 92.2494 42.6798 92.486 42.6798C92.6577 42.654 92.8156 42.5719 92.9341 42.4466V44.1716C92.6221 44.4079 92.2773 44.5989 91.9104 44.7389C91.5782 44.8314 91.2335 44.8733 90.8884 44.863C90.5341 44.8731 90.181 44.817 89.8479 44.6976C89.5421 44.5486 89.269 44.3418 89.0441 44.0889H89.0491ZM88.8242 39.7393C88.4921 39.9272 88.2155 40.1974 88.0221 40.5232C87.8337 40.8861 87.7408 41.2899 87.7519 41.6975C87.7381 41.9276 87.7904 42.1569 87.9029 42.359C87.9465 42.4341 88.0092 42.4966 88.0849 42.5404C88.1605 42.5842 88.2465 42.6078 88.3342 42.6087C88.6396 42.6087 88.8075 42.4003 88.8075 41.9753L88.8242 39.7343V39.7393Z" fill="#152E50"/>
<path fill-rule="evenodd" clip-rule="evenodd" d="M79.2227 34.9478H82.5622V35.8905C82.7737 35.181 83.4332 34.9808 84.566 34.9478V37.3889C84.3495 37.3414 84.1282 37.3192 83.9064 37.3227C83.733 37.3103 83.5591 37.3386 83.3989 37.4053C83.2388 37.472 83.097 37.5752 82.9851 37.7064C82.7569 37.9644 82.6495 38.3398 82.6495 38.8393V44.6973H79.2243V34.9478H79.2227Z" fill="#152E50"/>
<path fill-rule="evenodd" clip-rule="evenodd" d="M74.0268 44.0311C73.5006 44.3133 72.9453 44.5395 72.3705 44.7059C71.8233 44.824 71.2641 44.8795 70.7041 44.8713C69.6569 44.8713 68.8116 44.691 68.1683 44.3305C66.6798 43.5134 65.9531 42.0647 65.9531 39.9973C65.9531 38.3435 66.3732 37.0352 67.2134 36.0727C67.9737 35.2077 69.0393 34.7744 70.3919 34.7744C71.5247 34.7744 72.3957 35.0324 72.9864 35.5732C73.5078 36.0126 73.8967 36.5847 74.1108 37.2271C74.3306 37.9019 74.4464 39.0927 74.4464 40.1677V40.4588H69.3984C69.3834 40.9952 69.4699 41.5297 69.6535 42.0349C69.7794 42.4335 69.9891 42.6005 70.2946 42.8254C70.6 43.0504 71.0397 43.0338 71.4458 43.0338C71.8614 43.0362 72.271 42.9362 72.6373 42.7428C73.0527 42.545 73.4236 42.2672 73.7281 41.9257L74.0268 44.0311ZM69.3984 38.9223H70.8954C70.8786 38.398 70.8534 37.9978 70.8115 37.6985C70.7427 37.065 70.5144 36.7491 70.1402 36.7491C69.8868 36.7491 69.7005 36.9311 69.5813 37.2569C69.4622 37.5827 69.4135 38.1483 69.4035 38.9223" fill="#152E50"/>
<path d="M43.3856 20.7429C44.1223 19.7589 45.3306 19.2263 46.9282 19.1684H47.4786C48.3623 19.2072 49.2245 19.4496 49.9959 19.8763C50.2859 20.0284 50.5662 20.1979 50.835 20.384V17.5724C49.4947 17.1147 48.0848 16.8865 46.6664 16.8977C45.5634 16.8808 44.4622 16.9918 43.3856 17.2284C42.5222 17.4266 41.7012 17.7737 40.9606 18.2538C40.2884 18.6828 39.708 19.2374 39.2522 19.8862C38.643 20.7942 38.3477 22.0197 38.3477 23.5694C38.3489 24.0012 38.3769 24.4326 38.4316 24.861C38.6346 26.5149 39.2354 27.8182 40.2574 28.7427C40.5349 28.9864 40.8349 29.204 41.1536 29.3926L41.162 29.4009C42.5881 30.1368 44.1774 30.5119 45.787 30.4925C45.9548 30.4925 46.1227 30.5007 46.2905 30.4925C47.8335 30.4964 49.367 30.2546 50.8316 29.7763V27.0673C50.4418 27.3301 50.025 27.5518 49.5881 27.7288C49.5561 27.7461 49.5224 27.76 49.4874 27.7702C48.9339 28.0444 48.323 28.1872 47.7035 28.187H46.5187C46.3504 28.1849 46.1823 28.1733 46.0153 28.1522C45.2804 28.0597 44.5863 27.7671 44.0109 27.3072C43.4355 26.8474 43.0016 26.2385 42.7579 25.5491C42.6129 25.1342 42.5414 24.6978 42.5465 24.259V23.6173C42.5465 22.4332 42.8418 21.4673 43.3856 20.7429Z" fill="#F2C037"/>
<path fill-rule="evenodd" clip-rule="evenodd" d="M67.4836 25.074C67.148 24.5497 66.5959 24.1495 65.8356 23.8915C64.9059 23.5607 64.3991 23.3837 64.3135 23.3506C63.993 23.1853 63.8319 22.9504 63.8319 22.6891C63.83 22.5791 63.8561 22.4703 63.9077 22.3727C63.9592 22.2751 64.0347 22.1917 64.1272 22.1301C64.3573 21.979 64.6297 21.9032 64.9059 21.9134C65.2721 21.9157 65.6343 21.9894 65.9716 22.1301C66.4048 22.3394 66.8105 22.5998 67.1799 22.9057L67.6195 20.931C66.47 20.5556 65.4547 20.3555 64.5837 20.3555C63.9394 20.354 63.3005 20.47 62.6991 20.6978C62.0997 20.9335 61.5806 21.3321 61.2022 21.8473C60.7967 22.4452 60.5902 23.1527 60.6115 23.8716C60.6115 24.7796 60.8732 25.4709 61.3884 25.9456C61.6268 26.1776 61.9046 26.3668 62.2091 26.5046C62.7127 26.7459 63.2292 26.9601 63.7564 27.1463C64.4075 27.396 64.7364 27.7036 64.7364 28.1039C64.7367 28.2119 64.7117 28.3185 64.6634 28.4154C64.6151 28.5124 64.5447 28.5971 64.4578 28.6629C64.2577 28.8227 64.0054 28.9056 63.748 28.8961C63.0548 28.8758 62.3835 28.6524 61.8197 28.2544C61.5156 28.0593 61.2246 27.845 60.9488 27.6127L60.4453 29.6866C60.9884 29.962 61.5608 30.1772 62.152 30.3283L62.2544 30.3531C62.3299 30.3713 62.4071 30.3879 62.491 30.4044L62.6186 30.4292C62.9879 30.4843 63.361 30.5119 63.7346 30.5119C64.1395 30.5152 64.544 30.482 64.9428 30.4127H64.968C65.6272 30.3169 66.2502 30.0555 66.7771 29.6535C67.5558 29.0466 67.9518 28.1204 67.9518 26.8883C67.935 26.1539 67.784 25.547 67.4786 25.069" fill="#F2C037"/>
<path fill-rule="evenodd" clip-rule="evenodd" d="M72.9798 29.5332C72.7345 29.7899 72.438 29.9938 72.1088 30.1319C71.7439 30.2515 71.3605 30.3075 70.9761 30.2973C70.6537 30.3101 70.3319 30.2595 70.0296 30.1485C69.7593 30.0361 69.5267 29.851 69.3583 29.6143C68.8851 29.0575 68.6484 28.3325 68.6484 27.4394C68.6484 26.5232 68.9102 25.7856 69.4086 25.2563C69.6366 25.017 69.9017 24.8149 70.194 24.6576C70.4743 24.5237 70.7361 24.4658 71.4292 24.2408C71.734 24.1546 72.0147 24.0007 72.2498 23.791C72.4176 23.6157 72.5116 23.5313 72.5116 23.2485C72.5165 23.1141 72.49 22.9804 72.4341 22.8576C72.3782 22.7349 72.2945 22.6265 72.1894 22.5407C71.9508 22.3655 71.6594 22.2746 71.362 22.2827C71.0442 22.2784 70.7286 22.3346 70.4323 22.4481C70.0264 22.5995 69.6335 22.7831 69.2576 22.9971V20.4932C70.3976 20.3691 71.5445 20.3188 72.6912 20.3427C74.9064 20.3427 76.014 21.201 76.014 22.8847V27.666C76.014 27.9835 76.1398 28.1407 76.3764 28.1407C76.5457 28.1147 76.7009 28.0324 76.8161 27.9075V29.6159C76.5083 29.8471 76.1694 30.0353 75.8092 30.1749C75.4819 30.2661 75.1424 30.3079 74.8023 30.299C74.4534 30.3099 74.1057 30.2538 73.7786 30.1336C73.4765 29.9914 73.2088 29.7873 72.9932 29.5349L72.9798 29.5332ZM72.7734 25.2348C72.4423 25.4154 72.1695 25.6842 71.9863 26.0105C71.8063 26.3702 71.7165 26.7672 71.7245 27.1682C71.7087 27.3987 71.7618 27.6287 71.8773 27.8297C71.92 27.9055 71.9826 27.9686 72.0584 28.0125C72.1342 28.0564 72.2206 28.0795 72.3085 28.0795C72.6123 28.0795 72.7818 27.8711 72.7818 27.4543V25.2381L72.7734 25.2348Z" fill="#F2C037"/>
<path fill-rule="evenodd" clip-rule="evenodd" d="M55.8783 29.5332C55.6333 29.7903 55.3367 29.9942 55.0073 30.1319C54.6423 30.2515 54.259 30.3075 53.8745 30.2973C53.5521 30.31 53.2304 30.2594 52.928 30.1485C52.6578 30.0361 52.4251 29.851 52.2567 29.6143C51.7835 29.0575 51.5469 28.3325 51.5469 27.4394C51.5469 26.5232 51.8087 25.7856 52.3071 25.2563C52.5357 25.017 52.8013 24.8149 53.0942 24.6576C53.3727 24.5237 53.6345 24.4658 54.3276 24.2408C54.6324 24.1546 54.9131 24.0007 55.1483 23.791C55.3161 23.6157 55.4101 23.5313 55.4101 23.2485C55.4153 23.1142 55.3891 22.9805 55.3335 22.8578C55.2779 22.735 55.1944 22.6265 55.0895 22.5407C54.8505 22.3653 54.5584 22.2744 54.2605 22.2827C53.9427 22.2786 53.6271 22.3347 53.3308 22.448C52.9248 22.5995 52.5319 22.7831 52.1561 22.9971V20.4932C53.2954 20.3691 54.4419 20.3188 55.5879 20.3427C57.8031 20.3427 58.9107 21.201 58.9107 22.8847V27.666C58.9107 27.9835 59.0383 28.1407 59.2749 28.1407C59.444 28.1143 59.5991 28.0321 59.7146 27.9075V29.6159C59.404 29.8477 59.0623 30.0358 58.6993 30.1749C58.372 30.2663 58.0324 30.3081 57.6924 30.299C57.344 30.3102 56.9968 30.254 56.6704 30.1336C56.368 29.9911 56.0997 29.7871 55.8833 29.5349L55.8783 29.5332ZM55.6634 25.2348C55.333 25.4156 55.0608 25.6844 54.8781 26.0105C54.6971 26.3698 54.6073 26.7671 54.6163 27.1682C54.6008 27.3984 54.6532 27.6282 54.7673 27.8297C54.8109 27.9048 54.8736 27.9673 54.9492 28.0111C55.0249 28.0549 55.1109 28.0785 55.1986 28.0795C55.504 28.0795 55.6718 27.8711 55.6718 27.4543V25.2381L55.6634 25.2348Z" fill="#F2C037"/>
<path fill-rule="evenodd" clip-rule="evenodd" d="M60.8016 35.5731C61.3574 35.0543 62.0987 34.7731 62.8641 34.7908C63.7032 34.7908 64.3526 35.0984 64.7839 35.674C65.0793 36.056 65.2236 36.6316 65.2236 37.4155V44.6925H61.9176V38.2226C61.9176 37.8819 61.8756 37.6487 61.7733 37.5065C61.7306 37.4326 61.6667 37.3728 61.5897 37.3346C61.5127 37.2963 61.4259 37.2813 61.3403 37.2915C61.2358 37.2864 61.1317 37.3082 61.0384 37.3549C60.9451 37.4016 60.8658 37.4715 60.8083 37.5577V44.7074H57.4805V34.9496H60.8033V35.5665L60.8016 35.5731Z" fill="#152E50"/>
<path fill-rule="evenodd" clip-rule="evenodd" d="M41.3716 37.3229L40.6701 44.0294L40.603 44.6959H37.7031L37.787 44.0294L39.3259 31.3062H42.9189L45.2684 39.5887L47.6698 31.3062H51.1873L52.6238 44.0294L52.701 44.6959H49.5813L49.4957 44.0294L48.9134 37.3229L46.8844 44.0294L46.6898 44.6959H43.5449L43.3586 44.0294L41.3716 37.3229Z" fill="#152E50"/>
<path fill-rule="evenodd" clip-rule="evenodd" d="M55.0681 31.1982C56.1338 31.1982 56.6825 31.6729 56.6825 32.6652C56.6825 33.7325 56.15 34.2656 55.0849 34.2645C53.9941 34.2645 53.4453 33.7485 53.4453 32.7396C53.4453 31.7308 53.9857 31.1982 55.0681 31.1982Z" fill="#152E50"/>
<path fill-rule="evenodd" clip-rule="evenodd" d="M76.8042 31.2827C77.8681 31.2827 78.4186 31.7574 78.4186 32.7481C78.4186 33.8153 77.886 34.349 76.821 34.349C75.7301 34.349 75.1797 33.8313 75.1797 32.8241C75.1797 31.8169 75.7301 31.2827 76.8042 31.2827Z" fill="#152E50"/>
<path d="M78.4947 34.9478H75.1719V44.6957H78.4947V34.9478Z" fill="#152E50"/>
<path d="M56.7525 34.9478H53.4297V44.6957H56.7525V34.9478Z" fill="#152E50"/>
<path d="M34.5838 16.8711H7.59199C7.23053 16.8711 6.9375 17.1599 6.9375 17.5161V44.1169C6.9375 44.4732 7.23053 44.7619 7.59199 44.7619H34.5838C34.9453 44.7619 35.2383 44.4732 35.2383 44.1169V17.5161C35.2383 17.1599 34.9453 16.8711 34.5838 16.8711Z" fill="#F2C037"/>
<path fill-rule="evenodd" clip-rule="evenodd" d="M30.7973 23.3989H28.5788C28.4466 23.3997 28.3194 23.3492 28.2247 23.2583C26.3137 21.4266 23.7531 20.4019 21.0874 20.4019C18.4216 20.4019 15.861 21.4266 13.9501 23.2583C13.8553 23.3492 13.7282 23.3997 13.596 23.3989H11.3707C11.3039 23.3989 11.2377 23.412 11.1761 23.4374C11.1145 23.4629 11.0586 23.5002 11.0117 23.5471C10.9649 23.5941 10.9279 23.6497 10.9031 23.7109C10.8783 23.7721 10.8661 23.8375 10.8673 23.9033V40.7347C10.8673 40.8663 10.9203 40.9925 11.0147 41.0856C11.1091 41.1786 11.2372 41.2309 11.3707 41.2309H30.7973C30.8641 41.232 30.9305 41.22 30.9926 41.1955C31.0546 41.1711 31.1111 41.1347 31.1587 41.0885C31.2064 41.0423 31.2442 40.9873 31.2701 40.9265C31.2959 40.8658 31.3092 40.8006 31.3092 40.7347V23.895C31.3092 23.8292 31.2959 23.764 31.2701 23.7032C31.2442 23.6425 31.2064 23.5874 31.1587 23.5412C31.1111 23.4951 31.0546 23.4587 30.9926 23.4342C30.9305 23.4098 30.8641 23.3978 30.7973 23.3989Z" fill="#112F52"/>
</g>
<defs>
<clipPath id="clip0_897_42393">
<rect width="86" height="28" fill="white" transform="translate(6.96875 16.416)"/>
</clipPath>
</defs>
</svg>
