<svg width="157" height="60" viewBox="0 0 157 60" fill="none" xmlns="http://www.w3.org/2000/svg">
<path d="M7.23843 33.7346C6.58713 33.9706 6.54766 34.8767 7.17579 35.1676L9.65483 36.3175C9.84189 36.4041 10.0556 36.4127 10.2495 36.3415L16.1369 34.1748V30.5142L7.23843 33.7337V33.7346Z" fill="#FF5500"/>
<path d="M13.7358 36.7746C13.0858 37.0134 13.0488 37.9192 13.6782 38.2086L16.1365 39.3403V35.8945L13.7358 36.7746Z" fill="#FF5500"/>
<path d="M20.594 17.8212C20.594 14.3874 17.7445 11.6185 14.2814 11.7506C11.1179 11.8716 8.54724 14.4611 8.44771 17.6256C8.35676 20.512 10.2813 22.9625 12.9198 23.6815V26.326L7.26964 28.3715C6.6184 28.6075 6.57893 29.5135 7.207 29.8044L9.68585 30.9542C9.8729 31.0408 10.0865 31.0494 10.2805 30.9782L16.1417 28.822V23.6747C18.7089 22.9651 20.5948 20.6141 20.5948 17.8203L20.594 17.8212ZM14.5251 20.6827C12.9541 20.6827 11.6808 19.4094 11.6808 17.8383C11.6808 16.2673 12.9541 14.994 14.5251 14.994C16.0962 14.994 17.3695 16.2673 17.3695 17.8383C17.3695 19.4094 16.0962 20.6827 14.5251 20.6827Z" fill="#FF5500"/>
<path d="M24.5938 23.8766V20.8354H27.9207V23.8766H24.5938ZM24.6459 39.0036V25.8514H27.8686V39.0036H24.6459Z" fill="black"/>
<path d="M30.3906 39.0037V25.8515H33.6133V27.4372H33.8209C34.5226 26.112 35.7705 25.5137 37.2781 25.5137C38.9159 25.5137 40.1629 26.3196 40.8134 27.749H41.0209C41.8268 26.2154 43.152 25.5137 44.868 25.5137C47.6496 25.5137 49.2865 27.307 49.2865 30.27V39.0037H46.0378V30.9725C46.0378 29.3608 45.1798 28.4776 43.7504 28.4776C42.321 28.4776 41.4369 29.3877 41.4369 30.9725V39.0037H38.2142V30.9725C38.2142 29.3608 37.3562 28.4776 35.9268 28.4776C34.4974 28.4776 33.6133 29.3877 33.6133 30.9725V39.0037H30.3906Z" fill="black"/>
<path d="M50.918 32.4271C50.918 28.3986 53.881 25.5137 58.0138 25.5137C62.1466 25.5137 65.1097 28.3986 65.1097 32.4271C65.1097 36.4557 62.1727 39.3406 58.0138 39.3406C53.855 39.3406 50.918 36.4818 50.918 32.4271ZM61.7046 32.4271C61.7046 30.0616 60.2491 28.5028 58.0138 28.5028C55.7785 28.5028 54.323 30.0624 54.323 32.4271C54.323 34.7918 55.8046 36.3524 58.0138 36.3524C60.2231 36.3524 61.7046 34.8188 61.7046 32.4271Z" fill="black"/>
<path d="M70.2355 39.0018L65.4531 25.8496H68.8842L72.2893 35.9085H72.4969L75.928 25.8496H79.2288L74.4465 39.0018H70.2355Z" fill="black"/>
<path d="M93.1593 33.2591H82.8668C83.1526 35.3641 84.5047 36.5599 86.6097 36.5599C88.4551 36.5599 89.5467 35.5986 89.8064 34.6625H93.003C92.6392 37.1835 90.1442 39.3406 86.5046 39.3406C82.4239 39.3406 79.5391 36.4557 79.5391 32.4011C79.5391 28.3465 82.4239 25.5137 86.4265 25.5137C90.7408 25.5137 93.782 28.8145 93.1585 33.2591H93.1593ZM82.9702 30.9717H90.066C89.6501 29.2826 88.3509 28.2943 86.4795 28.2943C84.608 28.2943 83.4122 29.2817 82.9702 30.9717Z" fill="black"/>
<path d="M95.0312 39.0028V20.8086H98.2539V39.0028H95.0312Z" fill="black"/>
<path d="M103.402 39.0018L99.6328 25.8496H102.986L105.637 35.8043H105.819L108.471 26.1093H111.798L114.449 35.8043H114.631L117.283 25.8496H120.505L116.684 39.0018H112.577L110.186 30.2429H109.978L107.639 39.0018H103.402Z" fill="black"/>
<path d="M134.562 33.2591H124.269C124.555 35.3641 125.907 36.5599 128.012 36.5599C129.857 36.5599 130.949 35.5986 131.209 34.6625H134.405C134.041 37.1835 131.547 39.3406 127.907 39.3406C123.826 39.3406 120.941 36.4557 120.941 32.4011C120.941 28.3465 123.826 25.5137 127.829 25.5137C132.143 25.5137 135.184 28.8145 134.561 33.2591H134.562ZM124.373 30.9717H131.468C131.052 29.2826 129.753 28.2943 127.882 28.2943C126.01 28.2943 124.815 29.2817 124.373 30.9717Z" fill="black"/>
<path d="M139.868 37.0011H139.66V39.0028H136.438V20.8086H139.66V27.8523H139.868C140.752 26.2405 142.493 25.5128 144.312 25.5128C148.055 25.5128 150.68 28.3977 150.68 32.4263C150.68 36.4549 148.055 39.3398 144.312 39.3398C142.493 39.3398 140.752 38.612 139.868 37.0002V37.0011ZM147.275 32.4263C147.275 30.0347 145.768 28.4759 143.454 28.4759C141.141 28.4759 139.659 30.0355 139.659 32.4263C139.659 34.817 141.167 36.3767 143.454 36.3767C145.742 36.3767 147.275 34.8431 147.275 32.4263Z" fill="black"/>
</svg>
