<svg width="146" height="40" viewBox="0 0 146 40" fill="none" xmlns="http://www.w3.org/2000/svg">
<g clip-path="url(#clip0_1492_38905)">
<g clip-path="url(#clip1_1492_38905)">
<path d="M8.67225 17.9342C14.1034 17.9342 17.4151 14.4775 17.1717 8.94298H8.91801V11.5174H13.8333C13.6118 13.8194 11.5727 15.1187 8.84745 15.1187C5.38244 15.1187 3.28738 12.3514 3.28738 8.9719C3.28738 5.59238 5.49681 2.91912 8.84745 2.91912C11.3294 2.91912 13.023 4.33891 13.8819 6.47462L17.0209 5.61407C15.9405 2.25382 12.9694 0 8.84258 0C3.80811 0 0 3.94359 0 8.96467C0 13.9858 3.23385 17.9318 8.67225 17.9318V17.9342Z" fill="black"/>
<path d="M25.187 8.13547C25.5325 8.13306 25.8756 8.14752 26.2187 8.18368V5.19468C25.8294 5.12478 25.4352 5.09103 25.041 5.09585C23.1942 5.09585 22.0164 6.57108 21.6247 8.45366H21.5273L21.722 5.29593H18.6731V18.1897H21.722V12.6214C21.722 9.18887 23.3183 8.13547 25.187 8.13547Z" fill="black"/>
<path d="M48.3301 4.92709C47.4517 4.93915 46.5952 5.18742 45.8482 5.64301C45.1011 6.0986 44.4928 6.74703 44.0864 7.51838L44.1497 5.28867H40.9451V23.3771H44.1375V15.9624C44.5244 16.7361 45.123 17.387 45.8628 17.8402C46.6049 18.2934 47.459 18.532 48.3301 18.5272C51.9046 18.5272 54.3501 15.367 54.3501 11.6717C54.3501 7.97637 51.9119 4.92468 48.3301 4.92468V4.92709ZM47.5564 15.8153C45.6511 15.8153 43.8942 14.1642 43.8942 11.7006C43.8942 9.23709 45.6608 7.56658 47.5564 7.56658C49.4518 7.56658 51.1965 9.18888 51.1965 11.6813C51.1965 14.1738 49.4372 15.8153 47.5588 15.8153H47.5564Z" fill="black"/>
<path d="M62.3068 18.5392C66.3461 18.5392 69.069 15.5647 69.069 11.7224C69.069 7.88002 66.3412 4.90302 62.3068 4.90302C58.2724 4.90302 55.5593 7.88002 55.5593 11.7224C55.5593 15.5647 58.2651 18.5392 62.3068 18.5392ZM62.2995 7.62451C64.2535 7.62451 65.9446 9.11174 65.9446 11.7224C65.9446 14.3329 64.2559 15.8178 62.3068 15.8178C60.3578 15.8178 58.6837 14.3112 58.6837 11.7224C58.6837 9.13343 60.3456 7.62451 62.2995 7.62451Z" fill="black"/>
<path d="M38.7282 15.8225V5.29108H35.5016V13.0698C35.5016 14.4534 34.6719 16.0395 33.027 16.0395C31.5719 16.0395 30.8346 15.0681 30.8346 13.0698V5.2959H27.8733V13.4193C27.8733 16.7265 29.1411 18.5561 31.9758 18.5561C33.5599 18.5561 34.8057 17.563 35.4895 16.5409V18.1897H38.7282V15.825V15.8225Z" fill="black"/>
<path d="M19.0868 29.1743C19.0868 23.8857 14.8212 19.7372 9.44848 19.7372C4.07576 19.7372 0 23.8784 0 29.1743C0 34.4702 4.0636 38.6139 9.45091 38.6139C11.2005 38.6283 13.1057 38.1607 14.6046 37.2664L17.3615 39.9927L17.3761 39.9758L17.3932 39.9927L19.846 37.7485L17.0111 35.1259C18.3738 33.4385 19.1062 31.3366 19.0868 29.1743ZM12.2516 34.9547C11.434 35.3549 10.3464 35.555 9.43388 35.5405C5.85693 35.5405 3.53801 32.7274 3.53801 29.1743C3.53801 25.6213 5.85693 22.801 9.43388 22.801C13.0108 22.801 15.5123 25.6309 15.5123 29.1671C15.5244 30.4109 15.2057 31.6355 14.59 32.7177L11.8866 30.0445L9.62125 32.2863L9.74291 32.4068L9.72588 32.4237L12.254 34.9547H12.2516Z" fill="black"/>
<path d="M30.0633 32.2454C30.0633 34.3328 28.4915 35.9045 26.6957 35.9045C25.1092 35.9045 24.3086 34.8511 24.3086 32.6769V25.3585H21.082V33.0722C21.082 36.659 22.4617 38.6428 25.5617 38.6428C27.6203 38.6428 29.5232 37.1242 30.1168 35.8298L30.0633 38.2547H33.2899V25.3585H30.0633V32.243V32.2454Z" fill="black"/>
<path d="M48.2863 24.9824C46.2618 24.9824 44.7118 26.5011 44.1181 27.7955L44.1692 25.3705H40.9451V38.2595H44.1692V31.3823C44.1692 29.2779 45.3396 27.7255 47.1354 27.7255C48.7218 27.7255 49.7682 28.7765 49.7682 30.9533V38.2691H53.0288V30.5555C53.0288 26.9663 51.3888 24.9824 48.2863 24.9824Z" fill="black"/>
<path d="M58.1752 21.5981H54.9657L54.9292 35.0584C54.9292 37.1121 56.0412 38.2499 58.1557 38.2499H61.7326V35.473H59.0828C58.4891 35.473 58.1752 35.1621 58.1752 34.5908V28.0197H61.7497V25.3609H58.1752V21.5981Z" fill="black"/>
<path d="M69.091 24.9463C65.0517 24.9463 62.3848 27.9836 62.3848 31.797C62.3848 35.6104 65.0687 38.6476 69.0983 38.6476C73.1278 38.6476 75.8482 35.5766 75.8482 31.797C75.8482 28.0173 73.1619 24.9463 69.0983 24.9463M69.0983 35.784C67.1978 35.784 65.6625 34.3858 65.6625 31.8163C65.6625 29.2466 67.1978 27.8317 69.0983 27.8317C70.9986 27.8317 72.5681 29.2466 72.5681 31.8163C72.5681 34.3858 71.0108 35.784 69.0983 35.784Z" fill="black"/>
<path d="M82.7129 20.2L75.6487 38.2475H79.2842L80.9578 33.641H88.5354L90.2266 38.2475H93.8545L86.7393 20.2H82.7129ZM81.9099 30.9846L84.7173 23.2565L87.5598 30.9846H81.9099Z" fill="black"/>
<path d="M102.035 24.9824C100.011 24.9824 98.461 26.5011 97.8672 27.7955L97.9181 25.3705H94.6917V38.2595H97.9181V31.3823C97.9181 29.2779 99.0861 27.7255 100.882 27.7255C102.471 27.7255 103.515 28.7765 103.515 30.9533V38.2691H106.778V30.5555C106.778 26.9663 105.14 24.9824 102.035 24.9824Z" fill="black"/>
<path d="M118.565 27.552C118.078 26.4505 116.564 24.9825 114.291 24.9825C110.663 24.9825 108.223 28.1571 108.223 31.8331C108.223 35.5092 110.669 38.6332 114.291 38.6332C115.182 38.6235 116.053 38.3752 116.813 37.9172C117.574 37.4592 118.197 36.806 118.616 36.0298L118.562 38.233H121.789V20.2048H118.562V27.5544L118.565 27.552ZM115.112 35.8515C113.177 35.8515 111.574 34.1785 111.574 31.8307C111.574 29.4829 113.194 27.7569 115.112 27.7569C117.029 27.7569 118.686 29.4829 118.686 31.8307C118.686 34.1785 117.012 35.8851 115.112 35.8515Z" fill="black"/>
<path d="M129.726 24.9463C126.152 24.9463 124.025 27.0338 123.606 28.9333L126.831 29.5021C127.147 28.4488 128.191 27.569 129.639 27.569C131.225 27.569 132.184 28.6224 132.184 30.2277V31.9006C131.556 31.3824 130.459 30.5556 128.295 30.5556C125.558 30.5556 123.428 32.0742 123.428 34.5401C123.428 37.0061 125.225 38.6307 128.015 38.6307C130.24 38.6307 131.641 37.5412 132.252 36.577L132.184 38.233H135.41V29.9867C135.427 26.8121 133.264 24.9487 129.724 24.9487L129.726 24.9463ZM129.361 36.2299C127.583 36.2299 126.762 35.3476 126.762 34.4172C126.762 33.4867 127.565 32.537 129.361 32.537C130.982 32.537 132.252 33.2264 132.252 34.2099C132.252 35.2802 130.998 36.2275 129.361 36.2275V36.2299Z" fill="black"/>
<path d="M144.759 25.1536C142.93 25.1536 141.272 26.448 140.628 28.5355H140.557L140.732 25.3585H137.489V38.2474H140.715V32.8648C140.715 29.2249 142.65 28.2053 144.516 28.2053C145.092 28.2053 145.825 28.2559 146 28.2559V25.2717C145.594 25.1801 145.177 25.1391 144.761 25.1512L144.759 25.1536Z" fill="black"/>
<path d="M38.7283 25.3609H35.4895V38.2499H38.7283V25.3609Z" fill="black"/>
<path d="M38.7283 20.1686H35.4895V23.3795H38.7283V20.1686Z" fill="black"/>
</g>
</g>
<defs>
<clipPath id="clip0_1492_38905">
<rect width="146" height="40" fill="white"/>
</clipPath>
<clipPath id="clip1_1492_38905">
<rect width="146" height="40" fill="white"/>
</clipPath>
</defs>
</svg>
