<svg xmlns="http://www.w3.org/2000/svg" viewBox="0 0 24 24" role="img" aria-label="Grupo WhatsApp">
  <circle cx="12" cy="7.6" r="3.1" fill="#FFFFFF"/>
  <path fill="#FFFFFF" d="M12 12.2c-3.2 0-6.1 1.6-6.1 3.7V18h12.2v-2.1c0-2.1-2.9-3.7-6.1-3.7z"/>
  <circle cx="4.6" cy="9.2" r="2.1" fill="#FFFFFF" opacity="0.85"/>
  <path fill="#FFFFFF" opacity="0.85" d="M4.6 12.6c-2.1 0-3.9 1.1-3.9 2.6V17h3.4v-1.1c0-1 .5-1.9 1.4-2.7a6.6 6.6 0 0 0-.9-.6z"/>
  <circle cx="19.4" cy="9.2" r="2.1" fill="#FFFFFF" opacity="0.85"/>
  <path fill="#FFFFFF" opacity="0.85" d="M19.4 12.6c2.1 0 3.9 1.1 3.9 2.6V17h-3.4v-1.1c0-1-.5-1.9-1.4-2.7.3-.23.6-.43.9-.6z"/>
</svg>
