<svg width="138" height="60" viewBox="0 0 138 60" fill="none" xmlns="http://www.w3.org/2000/svg">
<path d="M27.1576 39.0615L23.4336 26.0659H26.7466L29.3663 35.902H29.5457L32.1654 26.3225H35.4527L38.0724 35.902H38.2526L40.8723 26.0659H44.0566L40.281 39.0615H36.2232L33.8601 30.4061H33.655L31.3433 39.0615H27.1568H27.1576Z" fill="black"/>
<path d="M45.2891 24.1139V21.1089H48.5763V24.1139H45.2891ZM45.3406 39.0607V26.0651H48.5249V39.0607H45.3406Z" fill="black"/>
<path d="M51.0156 39.0613V26.0657H54.1999V27.6326H54.405C55.0983 26.3231 56.3314 25.7319 57.821 25.7319C59.4394 25.7319 60.6715 26.5282 61.3142 27.9406H61.5193C62.3156 26.4253 63.625 25.7319 65.3206 25.7319C68.069 25.7319 69.6865 27.5039 69.6865 30.4316V39.0613H66.4764V31.1258C66.4764 29.5332 65.6287 28.6605 64.2163 28.6605C62.8039 28.6605 61.9303 29.5589 61.9303 31.1258V39.0613H58.746V31.1258C58.746 29.5332 57.8982 28.6605 56.4859 28.6605C55.0735 28.6605 54.1999 29.5589 54.1999 31.1258V39.0613H51.0156Z" fill="black"/>
<path d="M71.3047 32.5631C71.3047 28.5825 74.2324 25.7319 78.316 25.7319C82.3996 25.7319 85.3274 28.5825 85.3274 32.5631C85.3274 36.5437 82.4253 39.3951 78.316 39.3951C74.2067 39.3951 71.3047 36.5703 71.3047 32.5631ZM81.9628 32.5631C81.9628 30.2257 80.5247 28.6854 78.316 28.6854C76.1073 28.6854 74.6692 30.2265 74.6692 32.5631C74.6692 34.8996 76.1331 36.4416 78.316 36.4416C80.499 36.4416 81.9628 34.9262 81.9628 32.5631Z" fill="black"/>
<path d="M90.3895 39.0615L85.6641 26.0659H89.0543L92.4188 36.005H92.6239L96.0142 26.0659H99.2757L94.5503 39.0615H90.3895Z" fill="black"/>
<path d="M113.044 33.3843H102.874C103.156 35.4642 104.492 36.6458 106.572 36.6458C108.396 36.6458 109.474 35.6959 109.731 34.7709H112.89C112.53 37.2619 110.065 39.3942 106.469 39.3942C102.436 39.3942 99.5859 36.5437 99.5859 32.5373C99.5859 28.531 102.436 25.7319 106.391 25.7319C110.654 25.7319 113.659 28.9935 113.043 33.3851L113.044 33.3843ZM102.976 31.1241H109.988C109.577 29.4543 108.293 28.4786 106.444 28.4786C104.595 28.4786 103.413 29.4543 102.976 31.1241Z" fill="black"/>
<path d="M114.766 24.1139V21.1089H118.053V24.1139H114.766ZM114.817 39.0607V26.0651H118.001V39.0607H114.817Z" fill="black"/>
<path d="M119.719 34.7203H122.903C123.058 35.7989 124.007 36.5694 125.934 36.5694C127.372 36.5694 128.322 36.2099 128.322 35.2085C128.322 34.335 127.628 33.9506 125.523 33.6674C121.773 33.2049 120.232 32.0491 120.232 29.764C120.232 27.2216 122.518 25.7319 125.779 25.7319C129.041 25.7319 131.456 27.6068 131.609 30.2008H128.425C128.27 29.1994 127.346 28.5576 125.6 28.5576C124.265 28.5576 123.494 28.9429 123.494 29.7391C123.494 30.6127 124.265 30.9979 126.653 31.2545C130.095 31.614 131.661 32.8214 131.661 35.1579C131.661 37.9312 129.195 39.3951 125.831 39.3951C122.055 39.3951 119.795 37.4172 119.719 34.7211V34.7203Z" fill="black"/>
<path d="M7.23593 33.4815C6.58782 33.7164 6.54854 34.6181 7.17359 34.9075L9.6405 36.0518C9.82665 36.138 10.0393 36.1466 10.2323 36.0757L16.0909 33.9196V30.2769L7.23593 33.4807V33.4815Z" fill="#FF5500"/>
<path d="M13.7056 36.5037C13.0592 36.7411 13.0225 37.6419 13.6484 37.9297L16.0931 39.0551V35.6284L13.7056 36.5037Z" fill="#FF5500"/>
<path d="M20.5215 17.6451C20.5215 14.2283 17.6861 11.4731 14.2402 11.6046C11.0924 11.725 8.53447 14.3017 8.43543 17.4504C8.34493 20.3225 10.2599 22.7609 12.8853 23.4763V26.1077L7.2632 28.1431C6.61518 28.3779 6.57591 29.2795 7.20087 29.5689L9.66742 30.7129C9.85355 30.7992 10.0661 30.8077 10.2591 30.7368L16.0912 28.5913V23.4695C18.6457 22.7634 20.5223 20.4241 20.5223 17.6442L20.5215 17.6451ZM14.4827 20.4924C12.9195 20.4924 11.6524 19.2254 11.6524 17.6621C11.6524 16.0989 12.9195 14.8319 14.4827 14.8319C16.046 14.8319 17.313 16.0989 17.313 17.6621C17.313 19.2254 16.046 20.4924 14.4827 20.4924Z" fill="#FF5500"/>
</svg>
